{
  "asset": {
    "version": "2.0",
    "generator": "THREE.GLTFExporter"
  },
  "scenes": [
    {
      "name": "AuxScene",
      "nodes": [
        2
      ]
    }
  ],
  "scene": 0,
  "nodes": [
    {
      "name": "Geo_Salmon",
      "extras": {
        "name": "Geo_Salmon"
      },
      "mesh": 0
    },
    {
      "children": [
        0
      ]
    },
    {
      "matrix": [
        4.440892098500626e-18,
        0,
        -0.02,
        0,
        0,
        0.02,
        0,
        0,
        0.02,
        0,
        4.440892098500626e-18,
        0,
        2,
        1,
        -2,
        1
      ],
      "children": [
        1
      ]
    }
  ],
  "bufferViews": [
    {
      "buffer": 0,
      "byteOffset": 0,
      "byteLength": 11520,
      "target": 34962,
      "byteStride": 12
    },
    {
      "buffer": 0,
      "byteOffset": 11520,
      "byteLength": 11520,
      "target": 34962,
      "byteStride": 12
    },
    {
      "buffer": 0,
      "byteOffset": 23040,
      "byteLength": 7680,
      "target": 34962,
      "byteStride": 8
    },
    {
      "buffer": 0,
      "byteOffset": 30720,
      "byteLength": 3036,
      "target": 34963
    }
  ],
  "buffers": [
    {
      "byteLength": 33756,
      "uri": "data:application/octet-stream;base64,"
    }
  ],
  "accessors": [
    {
      "bufferView": 0,
      "componentType": 5126,
      "count": 960,
      "max": [
        10.403751373291016,
        15.191235542297363,
        40.678504943847656
      ],
      "min": [
        -7.7718400955200195,
        -12.269697189331055,
        -40.67850875854492
      ],
      "type": "VEC3"
    },
    {
      "bufferView": 1,
      "componentType": 5126,
      "count": 960,
      "max": [
        0.9998844861984253,
        0.9998888373374939,
        1
      ],
      "min": [
        -0.9998844861984253,
        -0.9929463863372803,
        -0.9993233680725098
      ],
      "type": "VEC3"
    },
    {
      "bufferView": 2,
      "componentType": 5126,
      "count": 960,
      "max": [
        0.9278720021247864,
        0.9659079909324646
      ],
      "min": [
        0.044468000531196594,
        0.05851700156927109
      ],
      "type": "VEC2"
    },
    {
      "bufferView": 3,
      "componentType": 5123,
      "count": 1518,
      "max": [
        959
      ],
      "min": [
        0
      ],
      "type": "SCALAR"
    }
  ],
  "materials": [
    {
      "pbrMetallicRoughness": {
        "metallicFactor": 0,
        "roughnessFactor": 1,
        "baseColorTexture": {
          "index": 0
        }
      },
      "name": "lambert2SG"
    }
  ],
  "textures": [
    {
      "sampler": 0,
      "source": 0,
      "name": "Tex_Salmon"
    }
  ],
  "samplers": [
    {
      "magFilter": 9729,
      "minFilter": 9986,
      "wrapS": 10497,
      "wrapT": 10497
    }
  ],
  "images": [
    {
      "mimeType": "image/png",
      "uri": "data:image/png;base64,"
    }
  ],
  "meshes": [
    {
      "primitives": [
        {
          "mode": 4,
          "attributes": {
            "POSITION": 0,
            "NORMAL": 1,
            "TEXCOORD_0": 2
          },
          "indices": 3,
          "material": 0
        }
      ]
    }
  ]
}